<svg width="28" height="28" viewBox="0 0 28 28" fill="none" xmlns="http://www.w3.org/2000/svg">
<path d="M26.3434 8.57508L14.5543 2.21324C14.2078 2.02658 13.7913 2.02658 13.4459 2.21324L1.66261 8.57508C1.09561 8.88308 0.884446 9.59008 1.19011 10.1571C1.40011 10.5479 1.80261 10.7696 2.21678 10.7696C2.40345 10.7696 2.59478 10.7252 2.77095 10.6296L3.62728 10.1676L5.48228 23.2926C5.73428 24.7089 7.01061 25.6982 8.58561 25.6982H19.4146C20.9896 25.6982 22.2659 24.7089 22.5203 23.2622L24.3729 10.1664L25.2328 10.6307C25.7986 10.9376 26.5068 10.7264 26.8124 10.1594C27.1193 9.59241 26.9058 8.88424 26.3411 8.57858L26.3434 8.57508ZM14.0001 18.0076C11.9059 18.0076 10.2084 16.3101 10.2084 14.2159C10.2084 12.1217 11.9059 10.4242 14.0001 10.4242C16.0943 10.4242 17.7918 12.1217 17.7918 14.2159C17.7918 16.3101 16.0943 18.0076 14.0001 18.0076Z" fill="white"/>
</svg>
