<svg width="28" height="28" viewBox="0 0 28 28" fill="none" xmlns="http://www.w3.org/2000/svg">
<path d="M22.4583 3.521H5.54159C3.77175 3.521 2.33325 4.96066 2.33325 6.73166V21.3092C2.33325 23.0802 3.77175 24.521 5.54159 24.521H22.4583C24.2281 24.521 25.6666 23.0802 25.6666 21.3092V6.73166C25.6666 4.96066 24.2281 3.521 22.4583 3.521ZM5.54159 5.271H22.4583C23.2633 5.271 23.9166 5.92433 23.9166 6.72933V7.56233L14.5249 13.8238C14.2064 14.0338 13.7946 14.0362 13.4749 13.8215L4.08325 7.56233V6.72933C4.08325 5.92433 4.73659 5.271 5.54159 5.271ZM22.4583 22.7687H5.54159C4.73659 22.7687 4.08325 22.1153 4.08325 21.3103V9.61333L12.5299 15.2483C12.9768 15.547 13.4889 15.6963 13.9999 15.6963C14.5133 15.6963 15.0231 15.547 15.4699 15.2495L23.9166 9.6145V21.3068C23.9166 22.1118 23.2633 22.7652 22.4583 22.7652V22.7687Z" fill="#0F1419"/>
</svg>
