<svg width="28" height="28" viewBox="0 0 28 28" fill="none" xmlns="http://www.w3.org/2000/svg">
<path d="M25.3132 19.2127C25.2899 19.194 22.8166 17.2994 22.8597 12.1777C22.8831 9.22371 21.9124 6.59871 20.1216 4.78688C18.5174 3.16171 16.3451 2.26338 14.0059 2.25171H13.9907C11.6527 2.26338 9.48042 3.16171 7.87508 4.78804C6.08542 6.59988 5.11242 9.22371 5.13808 12.1777C5.18125 17.2294 2.78142 19.1392 2.68575 19.2127C2.38242 19.4379 2.25875 19.831 2.37658 20.1904C2.49558 20.5497 2.83158 20.7912 3.20725 20.7912H8.94725C9.06625 23.4862 11.2771 25.6445 13.9989 25.6445C16.7207 25.6445 18.9292 23.4862 19.0471 20.7912H24.7894C25.1651 20.7912 25.5011 20.5509 25.6177 20.1915C25.7379 19.8334 25.6142 19.439 25.3109 19.2139L25.3132 19.2127ZM14.0001 23.891C12.2442 23.891 10.8151 22.5179 10.7007 20.79H17.2994C17.1827 22.5167 15.7559 23.8934 14.0001 23.8934V23.891ZM5.11008 19.04C5.97342 17.7194 6.91608 15.5074 6.88808 12.1614C6.86708 9.64137 7.63942 7.51571 9.11992 6.01654C10.3951 4.72504 12.1299 4.00988 14.0001 4.00171C15.8702 4.01104 17.6016 4.72504 18.8767 6.01771C20.3584 7.51688 21.1319 9.64138 21.1109 12.1625C21.0829 15.5085 22.0268 17.7217 22.8901 19.0412H5.11008V19.04Z" fill="#0F1419"/>
</svg>
