<svg width="28" height="28" viewBox="0 0 28 28" fill="none" xmlns="http://www.w3.org/2000/svg">
<path d="M13.9999 13.7853C15.5807 13.7853 17.3506 13.6103 18.4799 12.32C19.4296 11.235 19.7376 9.55734 19.4202 7.19601C18.9769 3.90017 16.9504 1.93201 13.9999 1.93201C11.0494 1.93201 9.02289 3.90017 8.57956 7.19834C8.26222 9.55734 8.57022 11.235 9.51989 12.32C10.6492 13.6115 12.4191 13.7853 13.9999 13.7853ZM10.3132 7.42934C10.5022 6.02934 11.2314 3.68201 13.9999 3.68201C16.7684 3.68201 17.4976 6.03051 17.6866 7.42934C17.9281 9.23767 17.7531 10.4942 17.1616 11.1685C16.6307 11.7752 15.6846 12.0353 13.9999 12.0353C12.3152 12.0353 11.3691 11.7752 10.8382 11.1685C10.2467 10.4942 10.0717 9.23651 10.3132 7.42934ZM23.6599 22.442C22.6367 18.3283 18.6642 15.4537 13.9999 15.4537C9.33556 15.4537 5.36306 18.3283 4.33989 22.442C4.13922 23.2493 4.30722 24.0753 4.80072 24.7053C5.27672 25.312 6.01406 25.662 6.82256 25.662H21.1772C21.9857 25.662 22.7231 25.312 23.1991 24.7053C23.6937 24.0753 23.8606 23.2505 23.6587 22.442H23.6599ZM21.8212 23.6273C21.6742 23.814 21.4526 23.9143 21.1772 23.9143H6.82256C6.54839 23.9143 6.32556 23.8152 6.17856 23.6273C6.01872 23.4243 5.96856 23.1467 6.03856 22.8643C6.86689 19.5335 10.1417 17.206 13.9999 17.206C17.8581 17.206 21.1329 19.5323 21.9612 22.8643C22.0312 23.1467 21.9811 23.4243 21.8212 23.6273Z" fill="#0F1419"/>
</svg>
